<svg id="Layer_1" data-name="Layer 1" xmlns="http://www.w3.org/2000/svg" viewBox="0 0 1297 165.47"><defs><style>.cls-1,.cls-2{fill:#fff;}.cls-1{fill-rule:evenodd;}</style></defs><title>amp-cms-logo-white</title><path class="cls-1" d="M483.59,3.81h57C575.2,3.81,599,21.55,599,51.88v.45c0,33-28.52,50.09-61.3,50.09H495.26v59.71H483.59Zm54.79,87.82c29.19,0,49-15.27,49-38.63v-.45c0-24.93-19.31-38-47.61-38H495.26v77Z"/><path class="cls-1" d="M86,9.24c-.07-.17-.15-.33-.23-.5l-.08-.17h0A8.74,8.74,0,0,0,70,8.83h-.09L-1,162.13H11.13L76.57,18.82a1.12,1.12,0,0,1,2,0l40.3,88.73,24.92,54.58h12.8Z"/><path class="cls-1" d="M380.74,3.81a6.7,6.7,0,0,0-5.44,2.81L314,97a.77.77,0,0,1-1.27,0L251.45,6.62A6.71,6.71,0,0,0,246,3.81a6.54,6.54,0,0,0-6.73,6.5V162.13H250.5V25.56L307.16,108a7.26,7.26,0,0,0,12,0L375.8,25.56V162.13h11.67V10.31a6.54,6.54,0,0,0-6.73-6.5"/><path class="cls-2" d="M782.76,42.15a43.72,43.72,0,0,0-21-5.76,41.05,41.05,0,0,0-21.77,6,42.38,42.38,0,0,0-15.46,16.47,48.54,48.54,0,0,0-5.64,23.35,48.51,48.51,0,0,0,5.64,23.35A42.31,42.31,0,0,0,740,122a41,41,0,0,0,21.77,6,47.74,47.74,0,0,0,20.3-5A64,64,0,0,0,801,109.49l24.14,25.94A96.41,96.41,0,0,1,794.6,157q-17.72,8-35.08,8-23.46,0-42.41-10.83a79.06,79.06,0,0,1-29.78-29.56q-10.83-18.72-10.83-42,0-23,11-41.51A79,79,0,0,1,717.9,12q19.29-10.6,43.2-10.6a87.59,87.59,0,0,1,34.74,7.33,86.29,86.29,0,0,1,29.11,20L801,57.6A58.9,58.9,0,0,0,782.76,42.15Z"/><path class="cls-2" d="M896.91,3.91H941.8L987.6,96.4l45.57-92.49h44.9V162.05h-36.55l-.23-100.16-40.38,84.37H974.29L933.68,61.89V162.05H896.91Z"/><path class="cls-2" d="M1244.9,39.33q-14.34-4.74-24-4.74-7.66,0-12.07,2.82a9.18,9.18,0,0,0-4.4,8.23,11.26,11.26,0,0,0,3.84,8.69,29.3,29.3,0,0,0,9.47,5.64q5.64,2.14,16.7,5.53A217.43,217.43,0,0,1,1261.59,75,47.67,47.67,0,0,1,1280,89.52q7.66,9.83,7.67,25.61t-8.35,27q-8.34,11.16-22.9,16.81a89.11,89.11,0,0,1-32.37,5.64,116.89,116.89,0,0,1-39.14-6.89,107.07,107.07,0,0,1-33.73-18.83l16-32.26a99.49,99.49,0,0,0,28.31,17.37q16.35,6.76,29,6.77,9.26,0,14.55-3.39a11,11,0,0,0,5.3-9.92,11.77,11.77,0,0,0-3.94-9,29.28,29.28,0,0,0-9.93-5.75q-6-2.14-16.81-5.08a206.13,206.13,0,0,1-26.84-9.13,47.56,47.56,0,0,1-18.17-14q-7.56-9.36-7.55-24.93a43.52,43.52,0,0,1,7.78-25.72q7.79-11.06,22.11-17t33.27-6a120.84,120.84,0,0,1,33.84,4.85,111.71,111.71,0,0,1,29.33,13l-15.56,32.94A139.21,139.21,0,0,0,1244.9,39.33Z"/></svg>