<?xml version="1.0" encoding="UTF-8"?>
<svg width="151px" height="21px" viewBox="0 0 151 21" version="1.1" xmlns="http://www.w3.org/2000/svg" xmlns:xlink="http://www.w3.org/1999/xlink">
    <g id="Symbols" stroke="none" stroke-width="1" fill="none" fill-rule="evenodd">
        <g id="Page-1" fill="#FFFFFF">
            <polygon id="Fill-1" points="5.30462811 2 0 18 13.6974133 18 15.0233152 13.9942025 7.56805179 13.9942025 8.16873942 12.1470792 15.6495205 12.1470792 16.8422198 8.54811267 9.36194902 8.54811267 9.99223723 6.62889911 17.4730183 6.62889911 19 2"></polygon>
            <path d="M25.303784,5.06966985 C25.2618086,5.23781056 25.1956975,5.40645621 25.1054506,5.59883343 C24.8777346,6.17495522 24.8777346,6.17495522 24.7853889,6.63191423 C26.1705741,4.56575262 27.8716235,3.72454411 30.7175494,3.72454411 C33.3892778,3.72454411 34.8421481,4.75762491 34.675821,6.58394616 C34.6149568,7.25701395 34.3641543,8.38552598 34.0551111,9.29843413 L31.2013148,17.6120585 L24.887179,17.6120585 L27.1701111,10.8839052 C27.4765309,9.99573843 27.586716,9.61148892 27.6103272,9.34640221 C27.6627963,8.77028041 27.2687531,8.43399898 26.4943086,8.43399898 C25.2964383,8.43399898 24.4763457,9.20249799 23.9007593,10.8839052 L21.6141543,17.6120585 L15.3000185,17.6120585 L19.9005123,4.08455711 L25.6411605,4.08455711 L25.303784,5.06966985 Z" id="Fill-2"></path>
            <path d="M43.4963025,17.6119575 L35.3562407,17.6119575 L35.5860556,4.08445613 L41.9285247,4.08445613 L41.9106852,5.67043209 C41.8860247,7.30488104 41.8450988,8.02591691 41.7663951,8.89035207 C41.6703765,9.94766937 41.3204074,11.60484 41.0008704,12.6389307 L41.1509321,12.6389307 C41.7134012,10.836341 42.6583704,8.96306157 44.1490185,6.58384517 L45.724142,4.08445613 L51.8415185,4.08445613 L43.4963025,17.6119575 Z" id="Fill-4"></path>
            <path d="M55.2144969,3.34039559 C54.3136019,3.34039559 53.5701142,3.26768609 53.2579228,3.14751344 C53.0165648,3.0515773 52.9389105,2.81224186 52.9782623,2.37901443 C53.028108,1.82611927 53.3193117,1.10609326 53.5937253,0.81727497 C53.8151451,0.576929681 53.9961636,0.505734963 54.6509784,0.456757036 C55.0051451,0.408788963 55.4301451,0.385057391 55.6048673,0.385057391 L57.4795895,0.385057391 C59.2519969,0.385057391 59.5400525,0.505734963 59.4702685,1.27423398 C59.4088796,1.94629192 59.0935401,2.66732779 58.7152377,2.97937272 C58.3904537,3.26768609 57.9103611,3.34039559 56.7109167,3.34039559 L55.2144969,3.34039559 Z M54.0654228,17.6121595 L47.7486636,17.6121595 L52.3496821,4.0846581 C53.6110401,4.20483074 54.5806698,4.25279882 55.7533549,4.25279882 C56.9286636,4.25279882 57.7057315,4.20483074 58.6659167,4.0846581 L54.0654228,17.6121595 Z" id="Fill-6"></path>
            <path d="M68.5388241,10.3077834 C67.9212623,10.2598153 67.6468488,10.2355788 67.2727438,10.2355788 C66.2238858,10.2355788 65.2810154,10.4516876 64.5669105,10.8839052 C63.9587932,11.2691645 63.3443796,12.2542773 62.8679599,13.6473711 L61.5074352,17.6120585 L55.1932994,17.6120585 L59.7937932,4.08455711 L65.4615093,4.08455711 C65.3932994,4.27743926 65.3539475,4.42134348 65.3271883,4.44557998 L64.9719722,5.622565 C64.9368179,5.719511 64.7736389,6.15172858 64.5396265,6.80005495 C64.5375278,6.82378652 64.4645957,7.06413181 64.3612315,7.37617674 L64.436787,7.37617674 C65.1960154,5.88765171 65.7348735,5.18984249 66.5066944,4.66168877 C67.2276204,4.15726661 68.1237932,3.89268482 69.0241636,3.89268482 C69.5976512,3.89268482 70.0667253,3.94115782 70.6533302,4.08455711 L68.5388241,10.3077834 Z" id="Fill-9"></path>
            <path d="M75.5222037,9.63496803 C75.0074815,10.3560039 74.6743025,11.269417 74.5914012,12.1818202 C74.4859383,13.3355786 74.9586852,13.9117004 76.0322037,13.9117004 C76.8549198,13.9117004 77.5894877,13.526946 78.1530062,12.8306515 C78.6876667,12.1818202 79.2349198,10.8129629 79.3136235,9.94802282 C79.4049198,8.93867359 78.9442407,8.50595108 77.7977901,8.50595108 C76.7735926,8.50595108 76.065784,8.86596409 75.5222037,9.63496803 M84.4797346,5.04619074 C85.3790556,5.83842132 85.7321728,6.92048006 85.5863086,8.52968266 C85.3806296,10.7882215 84.3301975,13.2628691 82.7697654,15.0412223 C80.9002901,17.2275565 78.5444259,18.1399598 74.7488086,18.1399598 C69.9310926,18.1399598 68.1718025,16.6271982 68.5186235,12.8069199 C68.7919877,9.80310875 70.4458148,6.70437127 72.575537,5.26229953 C74.068284,4.20498222 76.2872037,3.70056007 79.2574815,3.70056007 C81.8777901,3.70056007 83.3164938,4.08480958 84.4797346,5.04619074" id="Fill-11"></path>
            <path d="M91.4874074,11.60484 C91.399784,12.5662212 91.8583642,13.0231802 92.8830864,13.0231802 C93.5300309,13.0231802 94.2325926,12.7101254 94.7829938,12.1577352 C95.3312963,11.6290765 95.8963889,10.3324238 95.9729938,9.49071037 C96.0469753,8.67424328 95.5201852,8.1693162 94.546358,8.1693162 C92.9234877,8.1693162 91.6731481,9.56341987 91.4874074,11.60484 Z M100.308519,14.5364467 C99.5891667,16.6748128 99.0917593,17.4917849 97.9757407,18.5011341 C96.2070062,20.1103367 93.7446296,20.8308676 90.0995988,20.8308676 C88.0522531,20.8308676 85.5799074,20.5672957 83.6212346,20.1345732 L84.2896914,16.8909216 C86.57,17.3478806 87.8801543,17.5160214 89.3277778,17.5160214 C91.175216,17.5160214 92.6401543,17.0590624 93.3605556,16.2658219 C93.6082099,16.0017451 93.6082099,16.0017451 94.0253395,14.9934057 C94.2834877,14.3445744 94.2834877,14.3445744 94.4996605,13.8881203 L94.3758333,13.8881203 C92.8862346,15.7144415 91.4512037,16.3864995 89.0559877,16.3864995 C86.1350309,16.3864995 84.8458642,15.184773 85.0709568,12.7101254 C85.2782099,10.427855 86.5201543,7.47302176 87.9111111,5.91077737 C89.2983951,4.37327442 91.0351235,3.67647505 93.4072531,3.67647505 C95.005463,3.67647505 96.0947222,4.03648806 96.577963,4.75752393 C96.8665432,5.16651486 96.9531173,5.59873244 96.9898457,6.55960867 L97.1141975,6.55960867 C97.2584877,5.81484123 97.2632099,5.76687316 97.7684877,4.32530635 L97.8387963,4.08445613 L103.880617,4.08445613 L100.308519,14.5364467 Z" id="Fill-13"></path>
            <path d="M108.06692,12.1820222 C107.98192,13.1191669 108.460438,13.5993525 109.483062,13.5993525 C110.434852,13.5993525 111.199852,13.1423935 111.727691,12.2547317 C112.141148,11.5569225 112.475901,10.6445192 112.590284,9.92348337 C112.71516,9.08227485 112.161611,8.6020892 111.088093,8.6020892 C109.490407,8.6020892 108.258957,10.0673876 108.06692,12.1820222 Z M116.28621,17.612008 L109.967877,17.612008 C110.064944,17.1070809 110.521426,15.9306008 111.017784,14.8732835 L110.891858,14.8732835 C109.518216,17.0591128 108.126735,17.8281168 105.431395,17.8281168 C102.534049,17.8281168 101.163031,16.4340131 101.41121,13.6952886 C101.597475,11.6528586 102.612228,8.72226184 103.775994,6.92068203 C105.260346,4.5894337 107.175994,3.5563529 109.948988,3.5563529 C112.744019,3.5563529 113.809667,4.46926106 113.612907,6.63186374 L113.582475,6.96814517 L113.708401,6.96814517 L113.851642,6.46372302 C113.935593,6.10371001 114.043679,5.74268715 114.151765,5.38267414 C114.341179,4.66163827 114.378432,4.51722913 114.568895,4.08450662 L120.887228,4.08450662 L116.28621,17.612008 Z" id="Fill-15"></path>
            <path d="M130.637883,10.2446675 C130.016123,10.1966994 129.745907,10.1724629 129.369704,10.1724629 C128.320846,10.1724629 127.377975,10.3885717 126.664395,10.8207893 C126.055753,11.2060486 125.441864,12.1911614 124.96492,13.5842552 L123.607019,17.5489426 L117.288685,17.5489426 L121.888654,4.02144123 L127.556895,4.02144123 C127.490259,4.21432337 127.453006,4.35822759 127.424148,4.38246409 L127.066833,5.55944911 C127.034302,5.65639511 126.8685,6.08861269 126.636586,6.73693906 C126.634488,6.76067063 126.561556,7.00101592 126.46029,7.31306086 L126.533747,7.31306086 C127.292975,5.82453583 127.829735,5.12672661 128.60208,4.59857288 C129.322481,4.09415073 130.220753,3.82956894 131.119549,3.82956894 C131.695136,3.82956894 132.16421,3.87804194 132.750815,4.02144123 L130.637883,10.2446675 Z" id="Fill-17"></path>
            <path d="M137.750389,9.8989944 C137.365265,10.5483306 137.088228,11.4854753 137.048877,12.2055013 C136.997457,13.142646 137.494864,13.647573 138.494926,13.647573 C139.468228,13.647573 140.218537,13.1668825 140.743228,12.2302427 C141.130975,11.5334434 141.427426,10.6922348 141.491963,9.9959404 C141.587457,9.12999046 141.014494,8.64980481 139.940975,8.64980481 C138.967148,8.64980481 138.219988,9.08202239 137.750389,9.8989944 Z M139.101469,17.6117555 C139.499185,16.2903614 139.529093,16.1944252 140.096809,14.9209991 L139.92366,14.9209991 C139.266222,15.9783164 138.944062,16.3625659 138.500698,16.7473204 C137.635481,17.4683562 136.240852,17.8758324 134.592272,17.8758324 C131.648753,17.8758324 130.300821,16.5064702 130.455605,13.6718095 C130.548475,11.9656609 131.259432,9.44304525 132.154556,7.6894335 C133.607951,4.8532581 135.545636,3.62880993 138.617179,3.62880993 C141.315142,3.62880993 142.462117,4.54171809 142.348259,6.63161127 L142.327272,7.01636571 L142.502519,7.01636571 C142.742827,5.81514419 143.028784,4.70985881 143.543506,3.02845164 L144.213012,0.817375956 L150.555481,0.817375956 L145.442364,17.6117555 L139.101469,17.6117555 Z" id="Fill-19"></path>
        </g>
    </g>
</svg>