<svg id="Layer_1" data-name="Layer 1" xmlns="http://www.w3.org/2000/svg" viewBox="0 0 330.55 58.17"><defs><style>.cls-1{fill:#234798;fill-rule:evenodd;}.cls-2{fill:#fff;}</style></defs><title>Artboard 1</title><path class="cls-1" d="M137.29,51.62a1.84,1.84,0,0,0,.32,1,2,2,0,0,0,1.63.59,2.42,2.42,0,0,0,1.22-.29A1,1,0,0,0,141,52a.77.77,0,0,0-.43-.72,4.86,4.86,0,0,0-1.06-.35l-1-.25a5,5,0,0,1-1.4-.52,1.55,1.55,0,0,1-.81-1.38,2.13,2.13,0,0,1,.76-1.69,3.06,3.06,0,0,1,2-.64,2.84,2.84,0,0,1,2.42,1A2.08,2.08,0,0,1,142,48.7h-1.18a1.43,1.43,0,0,0-.29-.76,1.91,1.91,0,0,0-1.49-.49,1.76,1.76,0,0,0-1.07.27.82.82,0,0,0-.37.7.87.87,0,0,0,.48.77,2.53,2.53,0,0,0,.82.3l.82.2a6.53,6.53,0,0,1,1.8.62,1.65,1.65,0,0,1,.73,1.49,2.25,2.25,0,0,1-.75,1.69,3.21,3.21,0,0,1-2.29.72,3.1,3.1,0,0,1-2.35-.75,2.77,2.77,0,0,1-.73-1.84Zm-6-5.16a2.75,2.75,0,0,1,1.43.35,3.47,3.47,0,0,1,.75.72v-3.7h1.2v10.1h-1.12v-1a2.66,2.66,0,0,1-1,1,2.91,2.91,0,0,1-1.37.31,2.8,2.8,0,0,1-2.15-1,4,4,0,0,1-.9-2.74,4.73,4.73,0,0,1,.82-2.78A2.75,2.75,0,0,1,131.33,46.46Zm-1.88,3.88a3.6,3.6,0,0,0,.51,2,1.78,1.78,0,0,0,1.62.79,1.71,1.71,0,0,0,1.42-.74,3.38,3.38,0,0,0,.56-2.11A3.13,3.13,0,0,0,133,48.2a1.83,1.83,0,0,0-1.42-.67,1.88,1.88,0,0,0-1.53.72A3.21,3.21,0,0,0,129.45,50.34ZM124,46.59h1.19v1.27a2.85,2.85,0,0,1,.71-.91,1.89,1.89,0,0,1,1.31-.53h.12l.28,0v1.3l-.2,0h-.21a1.8,1.8,0,0,0-1.44.59,2.08,2.08,0,0,0-.51,1.39v4.22H124ZM120,49.48a.69.69,0,0,0,.57-.36,1.22,1.22,0,0,0-.37-1.38,2.45,2.45,0,0,0-1.3-.29,1.64,1.64,0,0,0-1.38.52,1.59,1.59,0,0,0-.3.86h-1.17a2.12,2.12,0,0,1,.89-1.89,3.75,3.75,0,0,1,2-.53,4.1,4.1,0,0,1,2.13.49,1.67,1.67,0,0,1,.81,1.54v4.22A.48.48,0,0,0,122,53q.08.12.33.12h.19l.22,0V54a3.47,3.47,0,0,1-.44.1,2.43,2.43,0,0,1-.42,0,1,1,0,0,1-.93-.45,1.6,1.6,0,0,1-.22-.68,3.13,3.13,0,0,1-1.09.86,3.46,3.46,0,0,1-1.58.36,2.31,2.31,0,0,1-1.68-.62A2,2,0,0,1,115.7,52a2,2,0,0,1,.65-1.58,3,3,0,0,1,1.69-.69ZM117,52a1,1,0,0,0,.39.85,1.51,1.51,0,0,0,.94.3,2.89,2.89,0,0,0,1.27-.3,1.7,1.7,0,0,0,1-1.64v-1a1.91,1.91,0,0,1-.59.24,4.68,4.68,0,0,1-.71.14l-.75.09a2.91,2.91,0,0,0-1,.29A1.08,1.08,0,0,0,117,52Zm-6.18-5.51a2.72,2.72,0,0,1,1.42.35,3.27,3.27,0,0,1,.76.72v-3.7h1.2v10.1h-1.13v-1a2.59,2.59,0,0,1-1,1,2.84,2.84,0,0,1-1.36.31,2.78,2.78,0,0,1-2.15-1,4,4,0,0,1-.91-2.74,4.73,4.73,0,0,1,.83-2.78A2.72,2.72,0,0,1,110.83,46.46ZM109,50.34a3.68,3.68,0,0,0,.5,2,1.79,1.79,0,0,0,1.63.79,1.72,1.72,0,0,0,1.42-.74,3.44,3.44,0,0,0,.56-2.11,3.07,3.07,0,0,0-.58-2.06,1.81,1.81,0,0,0-1.42-.67,1.88,1.88,0,0,0-1.53.72A3.22,3.22,0,0,0,109,50.34Zm-8.68-3.75h1.18v1a3.39,3.39,0,0,1,1.12-.93,3.1,3.1,0,0,1,1.31-.28A2.17,2.17,0,0,1,106,47.51a3.76,3.76,0,0,1,.31,1.71v4.71h-1.27V49.3a2.51,2.51,0,0,0-.2-1.08,1.23,1.23,0,0,0-1.21-.69,2.39,2.39,0,0,0-.72.09A2.07,2.07,0,0,0,101.61,49a5.06,5.06,0,0,0-.09,1.1v3.85h-1.25Zm-3.91,2.89a.69.69,0,0,0,.57-.36,1.22,1.22,0,0,0-.37-1.38,2.45,2.45,0,0,0-1.3-.29,1.64,1.64,0,0,0-1.38.52,1.59,1.59,0,0,0-.3.86H92.41a2.12,2.12,0,0,1,.89-1.89,3.75,3.75,0,0,1,2-.53,4.1,4.1,0,0,1,2.13.49,1.67,1.67,0,0,1,.81,1.54v4.22a.48.48,0,0,0,.08.31q.07.12.33.12h.19l.22,0V54a3.47,3.47,0,0,1-.44.1,2.43,2.43,0,0,1-.42,0,1,1,0,0,1-.93-.45A1.6,1.6,0,0,1,97,53a3.13,3.13,0,0,1-1.09.86,3.46,3.46,0,0,1-1.58.36,2.31,2.31,0,0,1-1.68-.62A2,2,0,0,1,92,52a2,2,0,0,1,.65-1.58,3,3,0,0,1,1.69-.69Zm-3,2.49a1,1,0,0,0,.39.85,1.51,1.51,0,0,0,.94.3,2.89,2.89,0,0,0,1.27-.3,1.7,1.7,0,0,0,1-1.64v-1a1.91,1.91,0,0,1-.59.24,4.68,4.68,0,0,1-.71.14l-.75.09a2.91,2.91,0,0,0-1,.29A1.08,1.08,0,0,0,93.34,52Zm-4.65-7.43H90v2.05h1.18v1H90v4.78a.53.53,0,0,0,.26.52,1.18,1.18,0,0,0,.49.07h.19l.24,0v1a2.14,2.14,0,0,1-.44.08,4.12,4.12,0,0,1-.51,0A1.37,1.37,0,0,1,89,53.6a1.93,1.93,0,0,1-.31-1.15V47.6h-1v-1h1ZM80,50.68a2.38,2.38,0,0,0,2.83,2.39,4.17,4.17,0,0,0,1.41-.22,1.55,1.55,0,0,0,1.23-1.52A1.31,1.31,0,0,0,85,50.16a5.44,5.44,0,0,0-1.65-.6L82,49.25a6.28,6.28,0,0,1-1.91-.66,2.1,2.1,0,0,1-1-1.89,2.85,2.85,0,0,1,1-2.22,3.81,3.81,0,0,1,2.68-.87,4.68,4.68,0,0,1,2.72.76,2.74,2.74,0,0,1,1.12,2.44H85.27a2.52,2.52,0,0,0-.45-1.24,2.6,2.6,0,0,0-2.14-.78,2.52,2.52,0,0,0-1.75.5,1.56,1.56,0,0,0-.53,1.18A1.13,1.13,0,0,0,81,47.55a8.94,8.94,0,0,0,1.85.55l1.43.32a4.57,4.57,0,0,1,1.59.64,2.36,2.36,0,0,1,1,2,2.55,2.55,0,0,1-1.23,2.39,5.55,5.55,0,0,1-2.86.72,4.31,4.31,0,0,1-3-1,3.17,3.17,0,0,1-1-2.58Zm-7.82-1a3.25,3.25,0,0,0-.35-1.28,1.82,1.82,0,0,0-1.71-.89,1.87,1.87,0,0,0-1.44.61,2.29,2.29,0,0,0-.62,1.56Zm-2-3.25a3.45,3.45,0,0,1,1.53.37,2.68,2.68,0,0,1,1.13,1,3.2,3.2,0,0,1,.5,1.29,8,8,0,0,1,.11,1.62H68.07a3.09,3.09,0,0,0,.53,1.79,1.79,1.79,0,0,0,1.54.68,2,2,0,0,0,1.56-.64,2.13,2.13,0,0,0,.47-.86H73.4a2.51,2.51,0,0,1-.32.9,3.2,3.2,0,0,1-.62.82,2.91,2.91,0,0,1-1.4.74,4.49,4.49,0,0,1-1,.11,3.17,3.17,0,0,1-2.35-1,3.87,3.87,0,0,1-1-2.79,4.16,4.16,0,0,1,1-2.87A3.19,3.19,0,0,1,70.23,46.42Zm-7.78.17h1.19v1.27a2.85,2.85,0,0,1,.71-.91,1.89,1.89,0,0,1,1.31-.53h.12l.28,0v1.3l-.2,0h-.21a1.8,1.8,0,0,0-1.44.59,2.08,2.08,0,0,0-.51,1.39v4.22H62.45Zm-3.18-2.73h1.27v1.4H59.27Zm0,2.76h1.27v7.31H59.27ZM49.22,43.86h1.4V48h5.29V43.86H57.3V53.93H55.91V49.22H50.62v4.71h-1.4Zm-7.17,6.37a3.11,3.11,0,0,0-.56-2A1.86,1.86,0,0,0,40,47.55a1.77,1.77,0,0,0-1.8,1.22,4.71,4.71,0,0,0-.26,1.7,3,3,0,0,0,.51,1.89,1.66,1.66,0,0,0,1.37.65,1.93,1.93,0,0,0,1.89-1.2A3.87,3.87,0,0,0,42.05,50.23Zm-2.24-3.77a2.73,2.73,0,0,1,1.52.42,3.35,3.35,0,0,1,.72.7v-.92H43.2v6.67a4.87,4.87,0,0,1-.41,2.21A3,3,0,0,1,39.86,57a3.68,3.68,0,0,1-2-.53,2.07,2.07,0,0,1-.91-1.66H38.2a1.39,1.39,0,0,0,.36.76,1.86,1.86,0,0,0,1.33.41,1.83,1.83,0,0,0,1.87-1A5.55,5.55,0,0,0,42,52.9a2.39,2.39,0,0,1-.9.84,3.12,3.12,0,0,1-1.4.27,3,3,0,0,1-2.11-.84,3.72,3.72,0,0,1-.9-2.8,4.2,4.2,0,0,1,.91-2.88A2.83,2.83,0,0,1,39.81,46.46Zm-10.51.13h1.19v1a3.36,3.36,0,0,1,1.11-.93,3.1,3.1,0,0,1,1.31-.28A2.17,2.17,0,0,1,35,47.51a3.76,3.76,0,0,1,.31,1.71v4.71H34.08V49.3a2.51,2.51,0,0,0-.2-1.08,1.22,1.22,0,0,0-1.21-.69,2.43,2.43,0,0,0-.72.09,1.84,1.84,0,0,0-.9.61,1.75,1.75,0,0,0-.41.75,5.06,5.06,0,0,0-.09,1.1v3.85H29.3Zm-3.15-2.73h1.27v1.4H26.15Zm0,2.76h1.27v7.31H26.15Zm-3.69-2.08h1.26v2.05H24.9v1H23.72v4.78a.53.53,0,0,0,.26.52,1.18,1.18,0,0,0,.49.07h.19l.24,0v1a2.14,2.14,0,0,1-.44.08A4.12,4.12,0,0,1,24,54a1.37,1.37,0,0,1-1.18-.44,1.93,1.93,0,0,1-.31-1.15V47.6h-1v-1h1Zm-3.94,0h1.26v2.05H21v1H19.78v4.78a.52.52,0,0,0,.26.52,1.15,1.15,0,0,0,.48.07h.2L21,53v1a2.11,2.11,0,0,1-.45.08,3.84,3.84,0,0,1-.5,0,1.37,1.37,0,0,1-1.18-.44,1.93,1.93,0,0,1-.31-1.15V47.6h-1v-1h1Zm-3.07,5.13a3.09,3.09,0,0,0-.35-1.28,1.82,1.82,0,0,0-1.71-.89,1.9,1.9,0,0,0-1.44.61,2.33,2.33,0,0,0-.62,1.56Zm-2-3.25a3.51,3.51,0,0,1,1.53.37,2.81,2.81,0,0,1,1.13,1A3.18,3.18,0,0,1,16.62,49a7.8,7.8,0,0,1,.12,1.62H11.3a3.09,3.09,0,0,0,.53,1.79,1.8,1.8,0,0,0,1.55.68,2,2,0,0,0,1.55-.64,2.15,2.15,0,0,0,.48-.86h1.22a2.51,2.51,0,0,1-.32.9,3.18,3.18,0,0,1-.61.82,3,3,0,0,1-1.41.74,4.49,4.49,0,0,1-1,.11,3.18,3.18,0,0,1-2.35-1,3.87,3.87,0,0,1-1-2.79,4.16,4.16,0,0,1,1-2.87A3.21,3.21,0,0,1,13.47,46.42ZM2,50.68a2.72,2.72,0,0,0,.41,1.39,2.72,2.72,0,0,0,2.42,1,4.21,4.21,0,0,0,1.41-.22,1.55,1.55,0,0,0,1.23-1.52,1.29,1.29,0,0,0-.52-1.17,5.26,5.26,0,0,0-1.64-.6l-1.38-.31A6.48,6.48,0,0,1,2,48.59,2.11,2.11,0,0,1,1,46.7,2.88,2.88,0,0,1,2,44.48a3.85,3.85,0,0,1,2.69-.87,4.7,4.7,0,0,1,2.72.76A2.74,2.74,0,0,1,8.5,46.81H7.2a2.52,2.52,0,0,0-.44-1.24,2.6,2.6,0,0,0-2.14-.78,2.52,2.52,0,0,0-1.75.5,1.57,1.57,0,0,0-.54,1.18A1.14,1.14,0,0,0,3,47.55a8.94,8.94,0,0,0,1.85.55l1.42.32a4.55,4.55,0,0,1,1.6.64,2.39,2.39,0,0,1,1,2A2.55,2.55,0,0,1,7.57,53.5a5.55,5.55,0,0,1-2.86.72,4.28,4.28,0,0,1-3-1,3.17,3.17,0,0,1-1-2.58Z"/><polygon class="cls-1" points="9.6 3.65 0 32.42 24.79 32.42 27.19 25.22 13.7 25.22 14.78 21.9 28.32 21.9 30.48 15.42 16.94 15.42 18.08 11.97 31.62 11.97 34.38 3.65 9.6 3.65"/><path class="cls-1" d="M44.74,9.75a5.58,5.58,0,0,1-.35.95,7.5,7.5,0,0,0-.56,1.86c2.43-3.71,5.43-5.22,10.44-5.22,4.7,0,7.26,1.85,7,5.13a24.6,24.6,0,0,1-1.1,4.87l-5,14.93H44l4-12.08a13.82,13.82,0,0,0,.78-2.76c.09-1-.6-1.64-2-1.64-2.11,0-3.55,1.38-4.56,4.4l-4,12.08H27.13L35.23,8h10.1Z"/><path class="cls-1" d="M76.76,32.27H62.43L62.84,8H74l0,2.85c0,2.93-.11,4.23-.25,5.78a40.12,40.12,0,0,1-1.35,6.73h.26a47.8,47.8,0,0,1,5.28-10.87L80.68,8H91.45Z"/><path class="cls-1" d="M95.37,32.27H84.25L92.35,8a56.51,56.51,0,0,0,6,.3,36.2,36.2,0,0,0,5.12-.3Zm2-25.62A11.72,11.72,0,0,1,94,6.3c-.43-.17-.57-.6-.5-1.38a5.58,5.58,0,0,1,1.09-2.8c.39-.44.7-.56,1.86-.65a14.11,14.11,0,0,1,1.68-.13h3.3c3.12,0,3.62.22,3.5,1.6A4.94,4.94,0,0,1,103.55,6c-.57.52-1.42.65-3.53.65Z"/><path class="cls-1" d="M120.84,19.16c-1.08-.09-1.57-.13-2.22-.13a9.19,9.19,0,0,0-4.77,1.16c-1.07.69-2.15,2.46-3,5l-2.39,7.12H97.35L105.45,8h10a3.4,3.4,0,0,1-.24.65l-.62,2.11c-.07.18-.35.95-.77,2.12,0,0-.13.47-.31,1h.13C115,11.22,115.91,10,117.27,9a7.63,7.63,0,0,1,4.43-1.38,11,11,0,0,1,2.87.34Z"/><path class="cls-1" d="M148.9,9.71c1.59,1.42,2.21,3.36,1.95,6.25a21.7,21.7,0,0,1-5,11.7c-3.29,3.92-7.43,5.56-14.11,5.56-8.49,0-11.58-2.72-11-9.58.48-5.39,3.39-11,7.14-13.54,2.63-1.9,6.53-2.81,11.76-2.81,4.61,0,7.15.69,9.19,2.42M133.14,18a9.48,9.48,0,0,0-1.64,4.57c-.19,2.07.64,3.11,2.53,3.11a4.72,4.72,0,0,0,3.74-1.94,11.86,11.86,0,0,0,2-5.18c.16-1.81-.65-2.59-2.67-2.59a4.45,4.45,0,0,0-4,2"/><path class="cls-1" d="M176.77,26.75c-1.27,3.84-2.14,5.31-4.11,7.12-3.11,2.89-7.45,4.18-13.86,4.18a55.54,55.54,0,0,1-11.41-1.25L148.57,31a41.66,41.66,0,0,0,8.87,1.12c3.25,0,5.83-.82,7.1-2.24.43-.48.43-.48,1.17-2.29.45-1.16.45-1.16.83-2h-.22A10.54,10.54,0,0,1,157,30.07c-5.14,0-7.41-2.16-7-6.6a24.47,24.47,0,0,1,5-12.21c2.45-2.76,5.5-4,9.68-4,2.81,0,4.73.65,5.58,1.94.51.74.66,1.51.73,3.24h.22a20.21,20.21,0,0,1,1.15-4l.12-.43h10.64Zm-15.53-5.26c-.15,1.72.65,2.54,2.46,2.54A4.83,4.83,0,0,0,167,22.48a9.44,9.44,0,0,0,2.1-4.79c.13-1.47-.8-2.37-2.52-2.37C163.77,15.32,161.57,17.82,161.24,21.49Z"/><path class="cls-1" d="M204.89,32.27H193.77a29.57,29.57,0,0,1,1.85-4.92h-.22c-2.42,3.93-4.87,5.31-9.61,5.31-5.1,0-7.52-2.5-7.08-7.42a31.54,31.54,0,0,1,4.16-12.17,11.73,11.73,0,0,1,10.87-6c4.92,0,6.79,1.64,6.45,5.53l-.06.6h.23l.25-.91c.15-.64.34-1.29.53-1.94A12.77,12.77,0,0,1,201.87,8H213Zm-14.46-9.75c-.15,1.68.69,2.55,2.49,2.55a4.41,4.41,0,0,0,4-2.42,13,13,0,0,0,1.52-4.18c.22-1.51-.76-2.38-2.65-2.38C192.93,16.09,190.76,18.73,190.43,22.52Z"/><path class="cls-1" d="M230.16,19c-1.1-.08-1.57-.13-2.24-.13a9.08,9.08,0,0,0-4.76,1.17c-1.07.69-2.15,2.46-3,5l-2.39,7.12H206.66l8.1-24.29h10a3.26,3.26,0,0,1-.23.65l-.63,2.11c-.06.17-.35.95-.76,2.11,0,0-.13.48-.31,1h.13c1.34-2.67,2.28-3.93,3.64-4.87A7.66,7.66,0,0,1,231,7.52a11,11,0,0,1,2.88.35Z"/><path class="cls-1" d="M245.06,32.27a28.5,28.5,0,0,1,1.75-4.83h-.31a12.4,12.4,0,0,1-2.5,3.28,10.76,10.76,0,0,1-6.88,2c-5.18,0-7.56-2.46-7.28-7.55a30.93,30.93,0,0,1,3-10.74c2.55-5.1,6-7.3,11.37-7.3,4.75,0,6.77,1.64,6.57,5.4l0,.69H251a71.59,71.59,0,0,1,1.83-7.16l1.18-4h11.17l-9,30.15Zm-2.38-13.85a10.18,10.18,0,0,0-1.24,4.14c-.09,1.69.79,2.59,2.55,2.59a4.36,4.36,0,0,0,4-2.54,11,11,0,0,0,1.31-4c.17-1.56-.84-2.42-2.73-2.42A4.19,4.19,0,0,0,242.68,18.42Z"/><ellipse class="cls-2" cx="301" cy="28.92" rx="25" ry="24.48"/><path class="cls-1" d="M295.57,53.61c-.74,1.44-.91,3.09-1.52,4.56-.41,0-.49-.36-.78-.44-.22.09-.28.55-.76.29-.06-1.74.88-3.38.95-5.17-2-1-4.09-1.69-5.93-2.83-8-5-12.56-12.06-12.35-21.56a10.6,10.6,0,0,0-1.39-6.35c-1.66-2.68-.62-4.89,2.26-6.88a8.37,8.37,0,0,1,3.49-1.11,3.73,3.73,0,0,0,2.1-1.12,35.42,35.42,0,0,1,4.51-3.87A27.43,27.43,0,0,1,306.51,5c1.26-1.35,1.2-3.34,2-4.93.46-.21.66.32,1.13.36,0,1.68-.86,3.22-.87,4.89A4.59,4.59,0,0,0,311,6.43a24.67,24.67,0,0,1,12.49,10.24,24.17,24.17,0,0,1,3.24,9,3.61,3.61,0,0,0,1.59,2.74,5.9,5.9,0,0,1,1.87,2.27,4,4,0,0,1,.24,3c-.53,2.48-2.3,3.59-4.33,4.53a3.79,3.79,0,0,0-1.85,1.75,25,25,0,0,1-11.79,11.28,27,27,0,0,1-15.29,2.3,2.32,2.32,0,0,0-1.56.16m20.89-43a17.24,17.24,0,0,0-8-3.87c0,1.12,1.08,1.47,1.06,2.52-.91,1.52-2.59.93-3.91,1.05-1.58,1.19-1.76,3.52-4,4,.62.51,1.52.24,1.89,1-.81,1.16-.81,1.16-2.13.82l-.58-1.34a4.86,4.86,0,0,0-3,.72c-.57-1.19-.54-1.86.43-2.61.76-.59,1.2-1.41,1.89-2a.71.71,0,0,0,.1-1.11c-1.8-.15-1.81,1.71-2.93,2.55a4.65,4.65,0,0,1-3.13.46c-.12,2-.57,3.73-.83,5.5a1.19,1.19,0,0,1-1.17-.07c-.43-.6.55-.86.31-1.4-1.82-.61-1.52,1.94-3.11,1.86-.35.09-.44-.55-.89-.56-1.1.29-2.14.65-2.51,1.75-.58.31-1.18-.06-1.68.42-.53.69-.52,1.9-1.67,2-.32.6.29,1.27-.6,1.79l-1-2.56c.48-.36,1,.15,1.47-.33a3.66,3.66,0,0,0-.72-3.69c-1.17.16-1.89.58-1.91,1.63.28.62,1,.59,1.23,1.41-1.15.67-.36,2.11-1.16,3.12.39.47.35,1,.58,1.54,1.28.76,1.62,2.55,3.24,2.91.24.62.44,1.16.56,1.51.65.77,1.51.39,2.06.8,2.12,2.21,12.25,6.09,15.42,5.89-.85-1.58-.58-3.25-.5-4.9A53.61,53.61,0,0,1,306,27.25c-.3-.58-.85-.93-.87-1.71.19-.39.17-1,.66-1.47.33-.38,1,0,1.39-.58a2.68,2.68,0,0,1-.83-2.07c-.27-.41-.77-.23-.95-.6-.08-1.36-.08-1.36,1.05-2,.21-.53.22-1.15.72-1.54a.77.77,0,0,1,1.11.53,5.53,5.53,0,0,0,1.94,2.39c.06.05.21,0,.32,0a.83.83,0,0,0,.29-.8l-.91-.73a4.49,4.49,0,0,1,0-1.83A4.6,4.6,0,0,0,311.3,15c1-1.72,1.84-2,3.77-1.66.44.08.86.41,1.39.19.87-1-.46-1.94,0-3M310,51.13a6.71,6.71,0,0,0-.38-2.83c-.33-1.4-.86-2.91-.35-4.23a5.38,5.38,0,0,0-.29-4.58c-1.62-.26-3.3-.5-5-.83a82.9,82.9,0,0,1-10.51-2.88,3.92,3.92,0,0,0-2.21-.44c-.08,0-.15.11-.37.29a3.48,3.48,0,0,1,.6.4,1,1,0,0,1,.38.74c-.5.9-.5.9-3.21,2.13-.63.69-.7,1.72-1.5,2.32s-1.81-.38-2.86,0c-.61,1.07-2,1.51-2.89,2.44,6.42,8.1,18.63,11.93,28.56,7.46m-1.94-24.29a19.08,19.08,0,0,0,3.3,1.16c.27,1.07,1.18,1.45,2.25,1.78,1-.64,2.17-.41,3.32-.39a3.34,3.34,0,0,0,2.13-1.07,1.42,1.42,0,0,0,.42-1.65c-.91,0-1.48-.59-2.18-.93-.44.14-.49.69-.94.77s-.75-.35-1.18-.18-.7,1-1.59,1c-.45-.92-1-2-2.34-1.66-.23-.34-.18-.69-.62-.78a2.83,2.83,0,0,0-1.5.15,6.76,6.76,0,0,0-1.07,1.85M306.64,6.22a18.35,18.35,0,0,0-9.28-.34c-.31.49-.78.81-.79,1.52.24.43.53,1,.86,1.54,1.51-.7,3.22,0,4.4-.95.94,0,1.31.69,2,1-.22-2,1.89-1.46,2.79-2.77M275.92,22.15a26.08,26.08,0,0,0,2.85-6.24c-1.62.14-3,.65-3.7,2.17s-.24,2.78.85,4.07m51.2,7.64c-.21,1.32-.4,2.38-.55,3.44s-.84,2-.35,3.16a4.07,4.07,0,0,0,2.87-3.28c.21-1.41-.48-2.41-2-3.32m-6.46,9.83c-1.17,1.34,0,2.53-.13,3.78a8.49,8.49,0,0,0,2.67-4,4.11,4.11,0,0,0-2.54.25M290.72,11.74c1.18.59,2-.37,2.95-.42.38,0,.59.68,1.1.23a1,1,0,0,0,0-1.3,5,5,0,0,1-2-.49c-1.49-.42-2.23.27-2.07,2m-12.57,8.93a4,4,0,0,0-.95,3.43A2,2,0,0,0,279,25a14.6,14.6,0,0,0-.86-4.35"/></svg>