<?xml version="1.0" encoding="UTF-8"?>
<svg width="26px" height="19px" viewBox="0 0 26 19" version="1.1" xmlns="http://www.w3.org/2000/svg" xmlns:xlink="http://www.w3.org/1999/xlink">
    <!-- Generator: Sketch 51 (57462) - http://www.bohemiancoding.com/sketch -->
    <title>support</title>
    <desc>Created with Sketch.</desc>
    <defs></defs>
    <g id="Symbols" stroke="none" stroke-width="1" fill="none" fill-rule="evenodd">
        <g id="support" fill="#1A1E32" fill-rule="nonzero">
            <path d="M24.0950872,0 L6.53752145,0 C5.48406751,0 4.64130435,0.752586082 4.64130435,1.64755331 L4.64130435,11.1260699 C4.64130435,12.0413773 5.50747759,12.7736232 6.53752145,12.7736232 L18.6405368,12.7736232 L21.3795171,15.1737626 C21.4965675,15.2754634 21.637028,15.3364839 21.8008986,15.3364839 C22.1286399,15.3364839 22.4095609,15.1127421 22.4095609,14.8076397 L22.4095609,12.7736232 L24.0950872,12.7736232 C25.1485412,12.7736232 25.9913043,12.0210371 25.9913043,11.1260699 L25.9913043,1.64755331 C25.9913043,0.732245917 25.1251311,0 24.0950872,0 Z M9.22968154,8.15640591 C8.26986794,8.15640591 7.47392496,7.46484032 7.47392496,6.63089358 C7.47392496,5.79694684 8.26986794,5.10538126 9.22968154,5.10538126 C10.1894951,5.10538126 10.9854381,5.79694684 10.9854381,6.63089358 C10.9854381,7.46484032 10.2129052,8.15640591 9.22968154,8.15640591 Z M15.3865346,8.15640591 C14.426721,8.15640591 13.630778,7.46484032 13.630778,6.63089358 C13.630778,5.79694684 14.426721,5.10538126 15.3865346,5.10538126 C16.3463482,5.10538126 17.1422912,5.79694684 17.1422912,6.63089358 C17.1422912,7.46484032 16.3463482,8.15640591 15.3865346,8.15640591 Z M21.5199776,8.15640591 C20.560164,8.15640591 19.764221,7.46484032 19.764221,6.63089358 C19.764221,5.79694684 20.560164,5.10538126 21.5199776,5.10538126 C22.4797912,5.10538126 23.2757342,5.79694684 23.2757342,6.63089358 C23.2757342,7.46484032 22.4797912,8.15640591 21.5199776,8.15640591 Z" id="Shape"></path>
            <path d="M3.13865355,11.4288719 L3.13865355,8.07183365 L1.23263786,8.07183365 C0.558559146,8.07183365 0.000700896815,8.5785564 0.000700896815,9.1908464 L0.000700896815,15.6515615 C-0.0225431969,16.3060784 0.535315053,16.8128012 1.23263786,16.8128012 L2.32511027,16.8128012 L2.32511027,18.2062888 C2.32511027,18.3963098 2.51106302,18.5652174 2.72025986,18.5652174 C2.83648033,18.5652174 2.92945671,18.5229905 2.99918899,18.4596502 L4.78898421,16.8339146 L12.6919761,16.8339146 C13.3660548,16.8339146 13.923913,16.3271919 13.923913,15.7149019 L13.923913,14.1102798 L6.09065346,14.1102798 C4.46356689,14.1102798 3.13865355,12.9068133 3.13865355,11.4288719 Z" id="Shape"></path>
        </g>
    </g>
</svg>