<?xml version="1.0" encoding="utf-8"?>
<!-- Generator: Adobe Illustrator 22.1.0, SVG Export Plug-In . SVG Version: 6.00 Build 0)  -->
<svg version="1.1" id="Layer_1" xmlns="http://www.w3.org/2000/svg" xmlns:xlink="http://www.w3.org/1999/xlink" x="0px" y="0px"
	 viewBox="0 0 27 25" style="enable-background:new 0 0 27 25;" xml:space="preserve">
<style type="text/css">
	.st0{fill:#182052;}
</style>
<g>
	<path class="st0" d="M25.3,11.8c-0.7,0-1.2,0.5-1.2,1.2v6.5c0,1.5-1.2,2.7-2.7,2.7H5.6c-1.5,0-2.7-1.2-2.7-2.7v-6.6
		c0-0.7-0.5-1.2-1.2-1.2s-1.2,0.5-1.2,1.2v6.6c0,2.8,2.3,5.1,5.1,5.1h15.7c2.8,0,5.1-2.3,5.1-5.1v-6.5C26.5,12.4,26,11.8,25.3,11.8z
		"/>
	<path class="st0" d="M12.7,16.2c0.2,0.2,0.5,0.3,0.8,0.3c0.3,0,0.6-0.1,0.8-0.3l3.8-3.8c0.2-0.2,0.3-0.5,0.3-0.8s-0.1-0.6-0.3-0.8
		c-0.4-0.4-1.1-0.4-1.6,0l-2,2V1.6c0-0.6-0.5-1.1-1.1-1.1c-0.6,0-1.1,0.5-1.1,1.1v11.1l-2-2c-0.4-0.4-1.1-0.4-1.6,0
		c-0.4,0.4-0.4,1.1,0,1.6L12.7,16.2z"/>
</g>
</svg>
