<?xml version="1.0" encoding="UTF-8"?>
<svg width="24px" height="24px" viewBox="0 0 24 24" version="1.1" xmlns="http://www.w3.org/2000/svg" xmlns:xlink="http://www.w3.org/1999/xlink">
    <g id="Symbols" stroke="none" stroke-width="1" fill="none" fill-rule="evenodd">
        <g id="Group-2" fill="#234798">
            <path d="M17.2228799,11.8481658 L19.0583203,11.5348601 C18.7697608,9.84858031 17.9738437,8.32165803 16.7650768,7.10797927 C15.486797,5.82976166 13.8702167,5.02389637 12.0894913,4.77519171 L11.8307763,6.62051813 C13.2086623,6.81456995 14.4621338,7.43633161 15.4521027,8.42605181 C16.3871701,9.36111917 16.9989214,10.5451399 17.2228799,11.8481658 Z" id="Fill-4"></path>
            <path d="M20.0929317,3.86972021 C17.9738437,1.75088083 15.2927452,0.412849741 12.3332841,0 L12.0746312,1.84532642 C14.6313773,2.20358549 16.9491804,3.36236269 18.7797089,5.18804145 C20.5155431,6.92387565 21.6546105,9.11751295 22.0675224,11.5300104 L23.9029628,11.216456 C23.4206001,8.42120207 22.1024654,5.88435233 20.0929317,3.86972021 Z" id="Fill-5"></path>
            <path d="M18.1727452,15.8126425 C17.3919369,15.0417824 16.4170146,15.0417824 15.6410561,15.8126425 C15.049139,16.3997098 14.4572841,16.9864663 13.8753152,17.5834819 C13.7160198,17.7476269 13.5817193,17.7823834 13.387854,17.672829 C13.0048488,17.4639793 12.5968488,17.2949223 12.2288903,17.066114 C10.5127038,15.9867979 9.07512863,14.5990259 7.80194728,13.0370363 C7.17023744,12.2610777 6.60797837,11.4304663 6.215025,10.495399 C6.13562604,10.3064456 6.15042396,10.1820933 6.30462086,10.0278342 C6.89653795,9.45562694 7.47359495,8.86880829 8.05556386,8.28180311 C8.86627889,7.46598964 8.86627889,6.51102591 8.05065194,5.69030052 C7.58799909,5.22279793 7.12534624,4.76518135 6.66287992,4.29767876 C6.18536697,3.8201658 5.71276593,3.3375544 5.23015453,2.86495337 C4.44934624,2.10404145 3.47442396,2.10404145 2.69840324,2.87005181 C2.10144987,3.45705699 1.52949132,4.05892228 0.922776296,4.63573057 C0.360517229,5.16814508 0.077056089,5.8197513 0.0173047936,6.58072539 C-0.0771408022,7.81939896 0.226216711,8.98806218 0.65417526,10.1271917 C1.52949132,12.4850363 2.86261049,14.5790674 4.4791908,16.4990052 C6.66287992,19.0956062 9.26918044,21.1498446 12.3182374,22.6321244 C13.6912115,23.2985907 15.11374,23.8110466 16.6606209,23.895544 C17.725139,23.9552953 18.6502582,23.6866943 19.3915224,22.8560207 C19.8988799,22.2889119 20.4708385,21.7716062 21.0081027,21.2294922 C21.8040198,20.4236269 21.8088696,19.4487668 21.0180509,18.6528497 C20.0730354,17.7027358 19.1229214,16.757658 18.1727452,15.8126425 Z" id="Fill-1"></path>
        </g>
    </g>
</svg>