<?xml version="1.0" encoding="UTF-8"?>
<svg width="18px" height="19px" viewBox="0 0 18 19" version="1.1" xmlns="http://www.w3.org/2000/svg" xmlns:xlink="http://www.w3.org/1999/xlink">
    <g id="search-icon" fill="#FFFFFF">
        <path d="M7.52670131,2.00155791 C10.5949837,2.00155791 13.0913383,4.5455084 13.0913383,7.6706236 C13.0913383,10.7974064 10.5949837,13.34094 7.52670131,13.34094 C4.46005532,13.34094 1.96410985,10.7974064 1.96410985,7.6706236 C1.96410985,4.5455084 4.46005532,2.00155791 7.52670131,2.00155791 M17.7256721,17.3052837 L13.2893448,12.6034362 C14.4303367,11.2205644 15.0554482,9.4812393 15.0554482,7.6706236 C15.0554482,3.44112871 11.6787011,0 7.52670131,0 C3.37674707,0 0,3.44112871 0,7.6706236 C0,11.9017861 3.37674707,15.3424979 7.52670131,15.3424979 C9.08497968,15.3424979 10.5712557,14.8638917 11.8398882,13.9533725 L16.3113984,18.6927415 C16.4983591,18.891188 16.74914,19 17.019558,19 C17.2736118,19 17.5145742,18.9007768 17.6986712,18.7202572 C18.090184,18.3375389 18.1012298,17.7042612 17.7256721,17.3052837" id="Fill-1"></path>
    </g>
</svg>